<svg width="90" height="19" viewBox="0 0 90 19" fill="none" xmlns="http://www.w3.org/2000/svg">
<path d="M0.384 18L6.936 1.2H9.864L16.368 18H13.128L9.528 8.448C9.448 8.256 9.336 7.952 9.192 7.536C9.064 7.12 8.92 6.672 8.76 6.192C8.6 5.696 8.456 5.24 8.328 4.824C8.2 4.392 8.104 4.08 8.04 3.888L8.64 3.864C8.544 4.184 8.432 4.544 8.304 4.944C8.176 5.344 8.04 5.76 7.896 6.192C7.752 6.624 7.608 7.04 7.464 7.44C7.336 7.84 7.216 8.2 7.104 8.52L3.504 18H0.384ZM3.36 14.16L4.44 11.448H12.096L13.248 14.16H3.36ZM19.0138 18V1.2H21.8218L31.5658 14.328L31.0378 14.424C30.9738 13.976 30.9178 13.52 30.8698 13.056C30.8218 12.576 30.7738 12.08 30.7258 11.568C30.6938 11.056 30.6618 10.52 30.6298 9.96C30.6138 9.4 30.5978 8.816 30.5818 8.208C30.5658 7.584 30.5578 6.928 30.5578 6.24V1.2H33.6538V18H30.7978L21.0058 5.064L21.6298 4.896C21.7098 5.792 21.7738 6.56 21.8218 7.2C21.8858 7.824 21.9338 8.368 21.9658 8.832C21.9978 9.28 22.0218 9.656 22.0378 9.96C22.0698 10.264 22.0858 10.544 22.0858 10.8C22.1018 11.04 22.1098 11.272 22.1098 11.496V18H19.0138ZM43.4903 18.24C42.5143 18.24 41.6183 18.12 40.8023 17.88C39.9863 17.624 39.2503 17.248 38.5943 16.752C37.9383 16.256 37.3543 15.656 36.8423 14.952L38.8823 12.648C39.6663 13.736 40.4343 14.488 41.1863 14.904C41.9383 15.32 42.7863 15.528 43.7303 15.528C44.2743 15.528 44.7703 15.448 45.2183 15.288C45.6663 15.112 46.0183 14.88 46.2743 14.592C46.5303 14.288 46.6583 13.944 46.6583 13.56C46.6583 13.288 46.6023 13.04 46.4903 12.816C46.3943 12.576 46.2423 12.368 46.0343 12.192C45.8263 12 45.5703 11.824 45.2663 11.664C44.9623 11.504 44.6183 11.368 44.2343 11.256C43.8503 11.144 43.4263 11.04 42.9622 10.944C42.0823 10.768 41.3143 10.536 40.6583 10.248C40.0023 9.944 39.4503 9.576 39.0023 9.144C38.5543 8.696 38.2263 8.2 38.0183 7.656C37.8103 7.096 37.7063 6.464 37.7063 5.76C37.7063 5.056 37.8583 4.408 38.1623 3.816C38.4823 3.224 38.9143 2.712 39.4583 2.28C40.0023 1.848 40.6343 1.512 41.3543 1.272C42.0743 1.032 42.8503 0.912 43.6823 0.912C44.6263 0.912 45.4663 1.024 46.2023 1.248C46.9543 1.472 47.6103 1.808 48.1703 2.256C48.7463 2.688 49.2183 3.216 49.5863 3.84L47.5223 5.88C47.2023 5.384 46.8423 4.976 46.4423 4.656C46.0423 4.32 45.6103 4.072 45.1463 3.912C44.6823 3.736 44.1943 3.648 43.6823 3.648C43.1063 3.648 42.6023 3.728 42.1703 3.888C41.7543 4.048 41.4263 4.28 41.1863 4.584C40.9463 4.872 40.8263 5.224 40.8263 5.64C40.8263 5.96 40.8983 6.248 41.0423 6.504C41.1863 6.744 41.3863 6.96 41.6423 7.152C41.9143 7.344 42.2583 7.512 42.6743 7.656C43.0903 7.8 43.5623 7.928 44.0903 8.04C44.9703 8.216 45.7623 8.456 46.4663 8.76C47.1703 9.048 47.7703 9.4 48.2663 9.816C48.7623 10.216 49.1383 10.68 49.3943 11.208C49.6503 11.72 49.7783 12.296 49.7783 12.936C49.7783 14.04 49.5143 14.992 48.9863 15.792C48.4743 16.576 47.7463 17.184 46.8023 17.616C45.8583 18.032 44.7543 18.24 43.4903 18.24ZM51.3371 18L57.8891 1.2H60.8171L67.3211 18H64.0811L60.4811 8.448C60.4011 8.256 60.2891 7.952 60.1451 7.536C60.0171 7.12 59.8731 6.672 59.7131 6.192C59.5531 5.696 59.4091 5.24 59.2811 4.824C59.1531 4.392 59.0571 4.08 58.9931 3.888L59.5931 3.864C59.4971 4.184 59.3851 4.544 59.2571 4.944C59.1291 5.344 58.9931 5.76 58.8491 6.192C58.7051 6.624 58.5611 7.04 58.4171 7.44C58.2891 7.84 58.1691 8.2 58.0571 8.52L54.4571 18H51.3371ZM54.3131 14.16L55.3931 11.448H63.0491L64.2011 14.16H54.3131ZM69.9669 18V1.2H77.2629C78.2709 1.2 79.1909 1.44 80.0229 1.92C80.8549 2.384 81.5109 3.024 81.9909 3.84C82.4869 4.64 82.7349 5.544 82.7349 6.552C82.7349 7.512 82.4869 8.4 81.9909 9.216C81.5109 10.016 80.8549 10.656 80.0229 11.136C79.2069 11.6 78.2869 11.832 77.2629 11.832H73.0149V18H69.9669ZM79.7109 18L75.4389 10.416L78.6549 9.816L83.4069 18.024L79.7109 18ZM73.0149 9.12H77.2869C77.7509 9.12 78.1509 9.016 78.4869 8.808C78.8389 8.584 79.1109 8.28 79.3029 7.896C79.4949 7.512 79.5909 7.088 79.5909 6.624C79.5909 6.096 79.4709 5.64 79.2309 5.256C78.9909 4.872 78.6549 4.568 78.2229 4.344C77.7909 4.12 77.2949 4.008 76.7349 4.008H73.0149V9.12ZM86.7493 18V1.2H88.3093C88.5813 1.2 88.8453 1.2 89.1013 1.2C89.3573 1.2 89.6133 1.2 89.8693 1.2V18H86.7493Z" fill="#003C35"/>
</svg>
