<svg width="32" height="32" viewBox="0 0 32 32" fill="none" xmlns="http://www.w3.org/2000/svg">
<g id="challenge 1">
<path id="Vector" d="M25.767 1.4395L25.853 1.354L25.147 0.645996L25.0605 0.731996C24.5642 1.22572 24.1708 1.81296 23.9029 2.45973C23.6351 3.1065 23.4981 3.79996 23.5 4.5H24.5C24.4984 3.93143 24.6095 3.36818 24.827 2.84285C25.0445 2.31752 25.364 1.84053 25.767 1.4395Z" fill="#08786B"/>
<path id="Vector_2" d="M29.3535 10.1465C28.8329 9.62282 28.2135 9.20763 27.5312 8.925C26.849 8.64237 26.1175 8.49792 25.379 8.50002H24.5V9.50002H25.379C25.9861 9.49833 26.5875 9.61709 27.1483 9.84942C27.7092 10.0818 28.2184 10.423 28.6465 10.8535L29.3535 10.1465Z" fill="#08786B"/>
<path id="Vector_3" d="M29.5 4.00002C28.8 3.99802 28.1065 4.13497 27.4598 4.40292C26.8131 4.67088 26.226 5.06451 25.7325 5.56102L25.1465 6.14652L25.8535 6.85352L26.4395 6.26802C26.8404 5.8648 27.3174 5.54511 27.8427 5.32746C28.3681 5.10981 28.9313 4.99852 29.5 5.00002V4.00002Z" fill="#08786B"/>
<path id="Vector_4" d="M9.49997 4.5H10.5C10.5018 3.79984 10.3648 3.10627 10.0969 2.45942C9.82893 1.81256 9.43538 1.22526 8.93897 0.731496L8.85297 0.645996L8.14697 1.354L8.23247 1.439C8.63566 1.84005 8.95529 2.3171 9.17286 2.84252C9.39043 3.36795 9.50161 3.93131 9.49997 4.5Z" fill="#08786B"/>
<path id="Vector_5" d="M9.49998 8.50002H8.62098C7.88252 8.49792 7.15098 8.64237 6.46874 8.925C5.7865 9.20763 5.16712 9.62282 4.64648 10.1465L5.35348 10.8535C5.78155 10.423 6.29076 10.0818 6.85164 9.84942C7.41251 9.61709 8.0139 9.49833 8.62098 9.50002H9.49998V8.50002Z" fill="#08786B"/>
<path id="Vector_6" d="M8.1465 6.85352L8.8535 6.14652L8.2675 5.56102C7.77402 5.06451 7.18692 4.67088 6.5402 4.40292C5.89349 4.13497 5.20003 3.99802 4.5 4.00002V5.00002C5.06864 4.99852 5.63193 5.10981 6.15726 5.32746C6.6826 5.54511 7.15955 5.8648 7.5605 6.26802L8.1465 6.85352Z" fill="#08786B"/>
<path id="Vector_7" d="M9.5 19L10.5 18L9 16L7.5 17L8 18.5L9.5 19Z" fill="#08786B"/>
<path id="Vector_8" d="M3 18L4 17L2.5 15L1 16L1.5 17.5L3 18Z" fill="#08786B"/>
<path id="Vector_9" d="M26.5 13.5L25 14.5L25.5 16L27 16.5L28 15.5L26.5 13.5Z" fill="#08786B"/>
<path id="Vector_10" d="M6.5 23.5L7.5 22.5L6 20.5L4.5 21.5L5 23L6.5 23.5Z" fill="#08786B"/>
<path id="Vector_11" d="M21.75 10.5C21.9489 10.5 22.1397 10.421 22.2803 10.2803C22.421 10.1397 22.5 9.94891 22.5 9.75V6.25C22.5 6.05109 22.421 5.86032 22.2803 5.71967C22.1397 5.57902 21.9489 5.5 21.75 5.5C21.5511 5.5 21.3603 5.57902 21.2197 5.71967C21.079 5.86032 21 6.05109 21 6.25V9.75C21 9.94891 21.079 10.1397 21.2197 10.2803C21.3603 10.421 21.5511 10.5 21.75 10.5Z" fill="#08786B"/>
<path id="Vector_12" d="M20.477 24.4525L22.277 23.5525C22.3462 23.518 22.4226 23.5 22.5 23.5H24.6095L25.015 21.8785C25.038 21.7868 25.0866 21.7034 25.1551 21.6382C25.2236 21.573 25.3092 21.5285 25.402 21.51L27.502 21.09V19H19.675L16.85 21.26L18.1 21.51C18.2129 21.5331 18.3144 21.5944 18.3873 21.6837C18.4602 21.773 18.5 21.8847 18.5 22V23.6615L20.477 24.4525Z" fill="#08786B"/>
<path id="Vector_13" d="M11 28.5C10.8674 28.5 10.7402 28.4473 10.6464 28.3536C10.5527 28.2598 10.5 28.1326 10.5 28V26H3.6755L1.5 27.74V30.5H16.0655L14.7325 28.5H11Z" fill="#08786B"/>
<path id="Vector_14" d="M13.6875 15.746C13.7798 15.7833 13.8588 15.8473 13.9144 15.9298C13.9701 16.0123 13.9999 16.1095 14 16.209V22H14.3245L19.187 18.1095C19.2759 18.0385 19.3863 17.9998 19.5 18H20V16.209C20.0001 16.1095 20.0299 16.0123 20.0856 15.9298C20.1413 15.8473 20.2203 15.7833 20.3125 15.746C20.96 15.4859 21.5146 15.0375 21.9046 14.4588C22.2946 13.8802 22.502 13.1978 22.5 12.5V11.3245C22.1722 11.485 21.8018 11.5373 21.4424 11.4738C21.0829 11.4102 20.753 11.2342 20.5 10.971C20.3377 11.1384 20.1434 11.2714 19.9287 11.3623C19.7139 11.4531 19.4832 11.4999 19.25 11.4999C19.0169 11.4999 18.7861 11.4531 18.5714 11.3623C18.3566 11.2714 18.1624 11.1384 18 10.971C17.8377 11.1384 17.6434 11.2714 17.4287 11.3623C17.2139 11.4531 16.9832 11.4999 16.75 11.4999C16.5169 11.4999 16.2861 11.4531 16.0714 11.3623C15.8566 11.2714 15.6624 11.1384 15.5 10.971C15.3093 11.1702 15.0734 11.3205 14.8123 11.4091C14.5512 11.4977 14.2725 11.522 14 11.48V11.5355C14.8326 11.6568 15.5938 12.0736 16.1446 12.7096C16.6953 13.3457 16.999 14.1586 17 15H16C15.9992 14.3372 15.7356 13.7018 15.2669 13.2331C14.7982 12.7644 14.1628 12.5008 13.5 12.5C13.3674 12.5 13.2402 12.4473 13.1465 12.3536C13.0527 12.2598 13 12.1326 13 12V9C13 8.86739 13.0527 8.74021 13.1465 8.64645C13.2402 8.55268 13.3674 8.5 13.5 8.5H15.25C15.4489 8.5 15.6397 8.42098 15.7803 8.28033C15.921 8.13968 16 7.94891 16 7.75C16 7.55109 15.921 7.36032 15.7803 7.21967C15.6397 7.07902 15.4489 7 15.25 7H13C12.6022 7 12.2207 7.15804 11.9394 7.43934C11.658 7.72064 11.5 8.10218 11.5 8.5V12.5C11.498 13.1978 11.7055 13.8802 12.0954 14.4588C12.4854 15.0375 13.04 15.4859 13.6875 15.746Z" fill="#08786B"/>
<path id="Vector_15" d="M14.25 10.5C14.4489 10.5 14.6397 10.421 14.7803 10.2803C14.921 10.1397 15 9.94891 15 9.75V9.5H14V10.455C14.0801 10.4843 14.1647 10.4995 14.25 10.5Z" fill="#08786B"/>
<path id="Vector_16" d="M28.5 19V21.5C28.5 21.6153 28.4602 21.727 28.3873 21.8163C28.3144 21.9056 28.2129 21.9669 28.1 21.99L25.91 22.428L25.487 24.1215C25.4598 24.23 25.3971 24.3262 25.3088 24.3948C25.2205 24.4634 25.1118 24.5004 25 24.5H22.618L20.7235 25.45C20.6604 25.4815 20.5913 25.4993 20.5208 25.5023C20.4503 25.5052 20.38 25.4932 20.3145 25.467L17.8145 24.467C17.7212 24.4297 17.6413 24.3653 17.5852 24.282C17.5291 24.1987 17.4994 24.1004 17.5 24V22.41L15.8305 22.076L14.8125 22.8905C14.7238 22.9614 14.6136 23.0001 14.5 23H10.707L8.70697 25H11C11.1326 25 11.2598 25.0527 11.3535 25.1464C11.4473 25.2402 11.5 25.3674 11.5 25.5V27.5H15C15.0823 27.5 15.1633 27.5203 15.2359 27.5591C15.3084 27.5979 15.3703 27.654 15.416 27.7225L17.267 30.5H30.5V19H28.5Z" fill="#08786B"/>
<path id="Vector_17" d="M15 5.25C15 5.05109 14.921 4.86032 14.7803 4.71967C14.6397 4.57902 14.4489 4.5 14.25 4.5C14.0511 4.5 13.8603 4.57902 13.7197 4.71967C13.579 4.86032 13.5 5.05109 13.5 5.25V6H15V5.25Z" fill="#08786B"/>
<path id="Vector_18" d="M17 7.75C16.9987 8.08003 16.9042 8.40299 16.7273 8.68158C16.5503 8.96018 16.2982 9.18306 16 9.3245V9.75C16 9.94891 16.079 10.1397 16.2197 10.2803C16.3603 10.421 16.5511 10.5 16.75 10.5C16.9489 10.5 17.1397 10.421 17.2803 10.2803C17.421 10.1397 17.5 9.94891 17.5 9.75V4.25C17.5 4.05109 17.421 3.86032 17.2803 3.71967C17.1397 3.57902 16.9489 3.5 16.75 3.5C16.5511 3.5 16.3603 3.57902 16.2197 3.71967C16.079 3.86032 16 4.05109 16 4.25V6.1755C16.2982 6.31694 16.5503 6.53982 16.7273 6.81842C16.9042 7.09701 16.9987 7.41997 17 7.75Z" fill="#08786B"/>
<path id="Vector_19" d="M19.25 10.5C19.4489 10.5 19.6397 10.421 19.7803 10.2803C19.921 10.1397 20 9.94891 20 9.75V5.25C20 5.05109 19.921 4.86032 19.7803 4.71967C19.6397 4.57902 19.4489 4.5 19.25 4.5C19.0511 4.5 18.8603 4.57902 18.7197 4.71967C18.579 4.86032 18.5 5.05109 18.5 5.25V9.75C18.5 9.94891 18.579 10.1397 18.7197 10.2803C18.8603 10.421 19.0511 10.5 19.25 10.5Z" fill="#08786B"/>
</g>
</svg>
