<svg width="24" height="24" viewBox="0 0 24 24" fill="none" xmlns="http://www.w3.org/2000/svg">
<g id="language 1" clip-path="url(#clip0_41_73554)">
<g id="Group">
<g id="Group_2">
<path id="Vector" d="M6.50197 6.42188H6.20103L5.63867 9.23438H7.06433L6.50197 6.42188Z" fill="#08786B"/>
</g>
</g>
<g id="Group_3">
<g id="Group_4">
<path id="Vector_2" d="M17.877 12.0469C18.1806 12.8625 18.5844 13.5226 19.0313 14.0844C19.4782 13.5226 19.9289 12.8624 20.2325 12.0469H17.877Z" fill="#08786B"/>
</g>
</g>
<g id="Group_5">
<g id="Group_6">
<path id="Vector_3" d="M21.8906 4.26562H13.1585L14.9793 18.8756C15.0115 19.4731 14.8481 20.0357 14.4581 20.4762L11.3748 24H21.8906C23.0537 24 23.9999 23.0538 23.9999 21.8906V6.42188C23.9999 5.25872 23.0537 4.26562 21.8906 4.26562ZM21.8906 12.0469H21.7028C21.3027 13.3305 20.6682 14.3348 20.0089 15.1267C20.5254 15.5989 21.0777 15.9862 21.6269 16.4201C21.9297 16.6625 21.9791 17.1047 21.7361 17.4082C21.4941 17.7113 21.0502 17.7604 20.748 17.5174C20.1513 17.0464 19.5912 16.6522 19.0312 16.1383C18.4711 16.6522 17.9579 17.0464 17.3613 17.5174C17.0591 17.7604 16.6151 17.7113 16.3732 17.4082C16.1301 17.1047 16.1795 16.6625 16.4823 16.4201C17.0315 15.9862 17.5369 15.5989 18.0535 15.1267C17.3941 14.3349 16.8065 13.3305 16.4065 12.0469H16.2187C15.83 12.0469 15.5156 11.7324 15.5156 11.3438C15.5156 10.9551 15.83 10.6406 16.2187 10.6406H18.3281V9.9375C18.3281 9.54886 18.6425 9.23438 19.0312 9.23438C19.4198 9.23438 19.7343 9.54886 19.7343 9.9375V10.6406H21.8906C22.2792 10.6406 22.5937 10.9551 22.5937 11.3438C22.5937 11.7324 22.2792 12.0469 21.8906 12.0469Z" fill="#08786B"/>
</g>
</g>
<g id="Group_7">
<g id="Group_8">
<path id="Vector_4" d="M11.4452 1.84777C11.314 0.794437 10.4138 0 9.35231 0H2.10938C0.946219 0 0 0.946219 0 2.10938V17.6719C0 18.835 0.946219 19.7812 2.10938 19.7812C6.31266 19.7812 9.33642 19.7812 13.1977 19.7812C13.4028 19.5468 13.5748 19.4 13.582 19.0939C13.5838 19.0172 11.4547 1.92389 11.4452 1.84777ZM8.62238 13.4394C8.24953 13.5161 7.87186 13.2741 7.79498 12.888L7.34559 10.6406H5.35758L4.90819 12.888C4.83267 13.2684 4.46597 13.5183 4.0808 13.4394C3.70041 13.3632 3.45319 12.9931 3.52941 12.612L4.93561 5.58075C5.00152 5.25253 5.28994 5.01562 5.625 5.01562H7.07812C7.41319 5.01562 7.70161 5.25253 7.76752 5.58075L9.17377 12.612C9.24998 12.9931 9.00281 13.3632 8.62238 13.4394Z" fill="#08786B"/>
</g>
</g>
<g id="Group_9">
<g id="Group_10">
<path id="Vector_5" d="M8.21533 21.1875L8.33599 22.1522C8.41643 22.7983 8.84571 23.4571 9.55183 23.7861C10.8844 22.3192 10.0782 23.2066 11.9124 21.1875H8.21533Z" fill="#08786B"/>
</g>
</g>
</g>
<defs>
<clipPath id="clip0_41_73554">
<rect width="24" height="24" fill="white"/>
</clipPath>
</defs>
</svg>
