<svg width="20" height="20" viewBox="0 0 20 20" fill="none" xmlns="http://www.w3.org/2000/svg">
<g id="PaperPlaneRight">
<path id="Vector" d="M2.51016 11.0937L15.6352 18.5851C15.8564 18.7092 16.1102 18.763 16.3627 18.7395C16.6153 18.7159 16.8548 18.6161 17.0492 18.4532C17.2437 18.2904 17.3841 18.0722 17.4516 17.8277C17.5191 17.5832 17.5107 17.3239 17.4274 17.0843L15.0055 10.0163C15.0058 10.0137 15.0058 10.0111 15.0055 10.0085C15.0059 10.0059 15.0059 10.0033 15.0055 10.0007L17.4274 2.91709C17.4941 2.72862 17.5146 2.52688 17.4873 2.32883C17.4599 2.13077 17.3854 1.94216 17.2701 1.77884C17.1548 1.61552 17.0019 1.48225 16.8244 1.39021C16.6469 1.29818 16.4499 1.25006 16.25 1.2499C16.0331 1.25046 15.82 1.30697 15.6313 1.41397L2.51329 8.91787C2.31979 9.02626 2.15861 9.18419 2.0463 9.37544C1.93399 9.5667 1.87459 9.78439 1.87419 10.0062C1.87379 10.228 1.93241 10.4459 2.04404 10.6375C2.15566 10.8292 2.31627 10.9877 2.50938 11.0968L2.51016 11.0937ZM16.25 2.4999L16.25 2.50694L13.8953 9.3749L9.37501 9.3749C9.20925 9.3749 9.05027 9.44075 8.93307 9.55796C8.81585 9.67517 8.75001 9.83414 8.75001 9.9999C8.75001 10.1657 8.81585 10.3246 8.93307 10.4418C9.05027 10.5591 9.20925 10.6249 9.37501 10.6249L13.8891 10.6249L16.2453 17.4905L16.25 17.4999L3.12501 10.0132L16.25 2.4999Z" fill="#1C1C1C" fill-opacity="0.4"/>
</g>
</svg>
