<svg width="20" height="20" viewBox="0 0 20 20" fill="none" xmlns="http://www.w3.org/2000/svg">
    <g id="PaperPlaneRight">
        <path id="Vector"
            d="M17.4898 8.90635L4.36484 1.41494C4.1436 1.29083 3.88983 1.23698 3.63726 1.26052C3.38468 1.28407 3.14525 1.38391 2.95076 1.54677C2.75628 1.70963 2.61594 1.92782 2.54841 2.17233C2.48087 2.41685 2.48933 2.67612 2.57265 2.91572L4.99452 9.98369C4.99421 9.98628 4.99421 9.98891 4.99452 9.9915C4.99409 9.99409 4.99409 9.99673 4.99452 9.99931L2.57265 17.0829C2.50592 17.2714 2.48538 17.4731 2.51274 17.6712C2.5401 17.8692 2.61458 18.0578 2.72991 18.2212C2.84525 18.3845 2.99808 18.5177 3.17557 18.6098C3.35307 18.7018 3.55005 18.7499 3.74999 18.7501C3.96692 18.7495 4.18004 18.693 4.36874 18.586L17.4867 11.0821C17.6802 10.9737 17.8414 10.8158 17.9537 10.6246C18.066 10.4333 18.1254 10.2156 18.1258 9.99382C18.1262 9.77203 18.0676 9.55412 17.956 9.36247C17.8443 9.17081 17.6837 9.01231 17.4906 8.90322L17.4898 8.90635ZM3.74999 17.5001V17.4931L6.10468 10.6251H10.625C10.7908 10.6251 10.9497 10.5592 11.0669 10.442C11.1841 10.3248 11.25 10.1659 11.25 10.0001C11.25 9.83434 11.1841 9.67536 11.0669 9.55815C10.9497 9.44094 10.7908 9.3751 10.625 9.3751H6.11093L3.75468 2.50947L3.74999 2.5001L16.875 9.98681L3.74999 17.5001Z"
            fill="#1C1C1C" fill-opacity="0.4" />
    </g>
</svg>