<svg width="32" height="32" viewBox="0 0 32 32" fill="none" xmlns="http://www.w3.org/2000/svg">
<g id="praying 1">
<g id="Male sit and pray">
<path id="Vector" d="M6.78666 31.3333H9.99999V28H9.16666C6.48666 28 5.29332 31.3333 6.78666 31.3333Z" fill="#08786B"/>
<path id="Vector_2" d="M23.4334 25.0134L18.8267 23.2401C18.4163 23.0826 18.0513 22.8261 17.764 22.4935C17.4767 22.1608 17.2761 21.7623 17.18 21.3334C14.5134 21.6601 12.0334 20.9801 11.68 18.5001L11.3334 16.0934C11.3211 16.0059 11.3262 15.9167 11.3484 15.8312C11.3706 15.7456 11.4094 15.6652 11.4626 15.5947C11.5701 15.4521 11.7299 15.3582 11.9067 15.3334C12.0835 15.3086 12.2629 15.3551 12.4054 15.4627C12.548 15.5702 12.6419 15.7299 12.6667 15.9067L13.0067 18.2867C13.4734 21.5467 20.4734 19.4601 22.1134 18.3734L20.6667 15.4334L16.6667 16.0001C16.4334 16.0001 16.54 16.3134 16.2467 13.9601C16.1626 13.2797 15.9051 12.6324 15.4988 12.0802C15.0926 11.528 14.5512 11.0895 13.9267 10.8067L12.6667 10.2267C12.416 10.1064 12.1429 10.0397 11.865 10.0309C11.5871 10.0221 11.3103 10.0713 11.0525 10.1755C10.7946 10.2796 10.5614 10.4364 10.3675 10.6357C10.1737 10.8351 10.0235 11.0727 9.92669 11.3334C9.18669 13.3334 9.33335 13.3934 9.33335 24.6667C9.33335 25.6667 9.84002 26.6667 10.8467 26.6667H18C18.1768 26.6667 18.3464 26.737 18.4714 26.862C18.5964 26.987 18.6667 27.1566 18.6667 27.3334C18.6667 27.5102 18.5964 27.6798 18.4714 27.8048C18.3464 27.9298 18.1768 28.0001 18 28.0001H11.3334V31.3334H24C24.5305 31.3334 25.0392 31.1227 25.4142 30.7476C25.7893 30.3725 26 29.8638 26 29.3334V28.7467C25.9998 27.9379 25.7544 27.1482 25.2962 26.4817C24.838 25.8152 24.1885 25.3032 23.4334 25.0134Z" fill="#08786B"/>
<path id="Vector_3" d="M11.8666 4.88002C18.2666 2.02669 17.68 2.34669 17.5933 2.21335C17.2354 1.62388 16.6948 1.16737 16.0536 0.91321C15.4125 0.659045 14.706 0.621117 14.0414 0.805191C13.3768 0.989264 12.7904 1.38527 12.3714 1.93304C11.9524 2.48081 11.7237 3.15039 11.72 3.84002C11.7314 4.19095 11.7805 4.53963 11.8666 4.88002Z" fill="#08786B"/>
<path id="Vector_4" d="M12.6667 7.44666L12.32 8.74666C13.1912 8.97629 14.0308 9.31215 14.82 9.74666C15.1067 8.66666 15.1267 8.76666 15.06 8.73333C15.3914 8.829 15.7304 8.89591 16.0733 8.93332C16.4005 8.9588 16.7256 8.86271 16.9864 8.66344C17.2472 8.46417 17.4253 8.17573 17.4867 7.85332C17.8267 5.99999 18.6667 5.87999 18.1667 3.53333L12 6.27999C12 6.91333 12 6.90666 12.6667 7.44666Z" fill="#08786B"/>
<path id="Vector_5" d="M24 14L21.9266 15.0333L23.2066 17.5933C23.4991 17.4134 23.7523 17.1766 23.9513 16.8968C24.1503 16.617 24.291 16.3001 24.365 15.9648C24.439 15.6296 24.4448 15.2829 24.3821 14.9453C24.3194 14.6078 24.1895 14.2863 24 14Z" fill="#08786B"/>
</g>
</g>
</svg>
